<svg width="100" height="100" viewBox="0 0 100 100" fill="none" xmlns="http://www.w3.org/2000/svg">
<rect width="100" height="100" rx="50" fill="#FFCD00"/>
<path fill-rule="evenodd" clip-rule="evenodd" d="M20.3975 35.3492C20.36 35.248 20.322 35.1459 20.2835 35.0419C19.8233 34.1184 19.2645 33.4161 18.6071 32.9351C17.9715 32.4733 17.084 32.2424 15.9445 32.2424C15.068 32.2424 14.3338 32.3674 13.7422 32.6176C13.1505 32.8677 12.7122 33.2814 12.4273 33.8586C12.1424 34.4358 12 35.1959 12 36.1387C12 37.0238 12.1424 38.082 12.4273 39.3134C12.7122 40.5641 13.0957 41.911 13.5778 43.354C14.0818 44.7971 14.6297 46.2594 15.2213 47.741C15.8349 49.2225 16.4485 50.6464 17.0621 52.0125C17.6976 53.3978 18.3003 54.6389 18.87 55.7356C19.4398 56.8516 19.9328 57.7367 20.3492 58.3909C21.0943 59.603 21.938 60.7671 22.8803 61.8831C23.8445 62.9991 24.9073 63.99 26.0687 64.8558C27.2521 65.7409 28.545 66.4336 29.9475 66.9338C31.35 67.4534 33.388 67.6939 35.0754 67.6939C37.3215 67.6939 38.8007 67.4534 40.2032 66.9338C41.6057 66.4336 42.8986 65.7409 44.082 64.8558C45.2434 63.99 46.3063 62.9991 47.2705 61.8831C48.2128 60.7671 49.0565 59.603 49.8015 58.3909C50.2179 57.7367 50.7555 56.7938 51.2807 55.7356C52.0253 54.2356 52.6339 52.5345 53.0783 51.2924C53.2396 50.8416 53.3792 50.4512 53.4959 50.1529C53.8229 49.3166 54.092 48.5459 54.3465 47.8171C54.9161 46.1858 55.4123 44.7647 56.3204 43.2897C57.4103 41.5192 60.0587 37.5805 64.2027 37.5805C71.2968 37.5805 74.2856 48.8142 75.1722 52.1719C75.6839 54.1095 76.0884 55.8504 76.4544 57.4259C77.2633 60.907 77.8843 63.58 79.0584 65.7804C80.1501 67.8263 83.0224 68.4508 85.281 67.6831C87.5396 66.9153 87.8098 64.3517 87.3091 61.6519C86.6524 58.1109 84.3782 52.4584 83.2516 49.7492C81.3147 45.0912 78.7431 39.7857 74.8178 36.0742C73.9337 35.2382 70.7402 32.8541 67.2585 32.2699C64.6283 31.8285 61.5464 31.8493 58.4923 32.9351C55.1901 34.109 52.9212 36.4644 51.5437 38.125C48.7898 41.4449 46.7902 45.9974 44.914 50.2692C42.0787 56.7244 39.525 62.5385 35.0754 62.4892C26.7499 62.3968 23.9288 49.4939 22.2715 41.914C21.8674 40.0659 21.5325 38.5341 21.2039 37.5817C20.9033 36.7107 20.6592 36.0537 20.3975 35.3492ZM64.4308 59.9333C67.4565 59.9333 69.9093 57.7797 69.9093 55.1231C69.9093 52.4665 67.4565 50.3129 64.4308 50.3129C61.4051 50.3129 58.9523 52.4665 58.9523 55.1231C58.9523 57.7797 61.4051 59.9333 64.4308 59.9333Z" fill="#08052D"/>
</svg>
